# xmcd
#
# Track frame offsets: 
#        150
#        63397
#        80449
#        117613
#        167092
#        181899
#        201764
#        220392
#        235372
#        248904
#        272029
#        291717
#        306049
#        326874
#
# Disc length: 4504 seconds
#
# Revision: 2
# Processed by: cddbd v1.5.2PL0 Copyright (c) Steve Scherf et al.
# Submitted via: ExactAudioCopy v1.0b3
#
DISCID=de11960e
DTITLE=Various Artist - Super Black Blues  vol1 (1969) and vol2 (1970)
DYEAR=2002
DGENRE=Blues
TTITLE0=T-Bone Walker - Paris Blues
TTITLE1=DeSylva-Brown-Henderson - Here am I Broken Hearted
TTITLE2=T-Bone Walker - Jot`s Blues
TTITLE3=T-Bone Walker - Blues Jam
TTITLE4=Lou Willie Turner - Honey Hush
TTITLE5=Reece Fleming - Yakety Yak
TTITLE6=Eddie "Cleanhead" Vinson - Cleanhead Blues
TTITLE7=Eddie "Cleanhead" Vinson - I Had a Dream
TTITLE8=Eddie "Cleanhead" Vinson, C. Singleton, Teddy McRae - Person t
TTITLE8=o Person
TTITLE9=Leon Thomas - Welcome to New York
TTITLE10=Leon Thomas - Disillusion Blues
TTITLE11=Leon Thomas - Damn Nam (Ain`t Goin` to Vietnam)
TTITLE12=T-Bone Walker - Stromy Monday Blues
TTITLE13=T-Bone Walker - Sail on
EXTD=YEAR: 2002
EXTT0=
EXTT1=
EXTT2=
EXTT3=
EXTT4=
EXTT5=
EXTT6=
EXTT7=
EXTT8=
EXTT9=
EXTT10=
EXTT11=
EXTT12=
EXTT13=
PLAYORDER=
